<svg width="109" height="109" viewBox="0 0 109 109" fill="none" xmlns="http://www.w3.org/2000/svg">
<g id="Group 3">
<path id="Arrow 1" d="M56.1763 28.3121C56.1763 27.7598 55.7286 27.3121 55.1763 27.3121C54.624 27.3121 54.1763 27.7598 54.1763 28.3121L56.1763 28.3121ZM54.4692 84.1953C54.8597 84.5858 55.4928 84.5858 55.8834 84.1953L62.2473 77.8314C62.6379 77.4408 62.6379 76.8077 62.2473 76.4172C61.8568 76.0266 61.2236 76.0266 60.8331 76.4172L55.1763 82.074L49.5194 76.4172C49.1289 76.0266 48.4957 76.0266 48.1052 76.4172C47.7147 76.8077 47.7147 77.4408 48.1052 77.8314L54.4692 84.1953ZM54.1763 28.3121L54.1763 83.4882L56.1763 83.4882L56.1763 28.3121L54.1763 28.3121Z" fill="#98904A"/>
<circle id="Ellipse 1" cx="54.115" cy="54.8391" r="53.115" stroke="#98904A" stroke-width="2"/>
</g>
</svg>
